# File created by Blade
# Date/Time:  Thu Sep 25 15:41:58 2014
# Frame Rate: 120.000 fps
#------------------------------------------------------
:FULLY-SPECIFIED
:DEGREES
169
root 15.860581 32.543101 3.369149 135.931229 -84.410844 -121.998271
Spine -2.291867 10.237316 0.249406
Head 5.551571 -15.626527 6.828242
LeftShoulder -9.670070 25.893492 12.209175
LeftArm 31.044778 25.555102 -63.968064
LeftForeArm 3.413738 -0.000000 24.635249
LeftHand -26.335762 0.000000 4.368133
LeftHandThumb1 -26.253704 0.000000 33.147579
RightShoulder -15.589432 10.749211 -23.933642
RightArm -5.805487 -34.098661 91.325042
RightForeArm -23.268533 -0.000000 28.397865
RightHand -4.367702 -0.000000 1.640389
RightHandThumb1 -24.326973 -0.000000 -32.862282
LeftUpLeg -16.561365 -6.375894 2.386877
LeftLeg 21.161618 -0.000000 -0.000000
LeftFoot -27.050344 17.968408 -21.642595
LeftToeBase 4.107996 -0.000000 -0.000000
RightUpLeg -31.615079 0.022622 -1.821075
RightLeg 56.375836 -0.000000 -0.000000
RightFoot -12.518876 -16.305291 1.640451
RightToeBase -4.057320 -0.000000 0.000000
170
root 15.998381 32.565536 3.361234 138.279441 -84.287047 -124.206239
Spine -2.448520 10.387430 0.229313
Head 5.515399 -15.522802 6.803806
LeftShoulder -9.702959 25.944572 12.141404
LeftArm 30.766007 25.894596 -64.079757
LeftForeArm 3.435965 -0.000000 24.430283
LeftHand -26.069846 -0.000000 3.851414
LeftHandThumb1 -26.253704 0.000000 33.147579
RightShoulder -15.585761 10.764032 -23.950476
RightArm -5.603383 -34.251160 91.254266
RightForeArm -23.200256 -0.000000 28.420988
RightHand -4.343967 -0.000000 1.441450
RightHandThumb1 -24.326973 -0.000000 -32.862282
LeftUpLeg -16.843613 -6.271888 2.410061
LeftLeg 20.948427 -0.000000 -0.000000
LeftFoot -26.729669 17.926675 -21.615379
LeftToeBase 4.470434 -0.000000 -0.000000
RightUpLeg -30.638743 -0.421501 -1.662243
RightLeg 56.313640 -0.000000 -0.000000
RightFoot -12.664905 -16.064166 2.020299
RightToeBase -4.445459 -0.000000 0.000000
171
root 16.135436 32.588121 3.346454 140.436204 -84.104755 -126.200186
Spine -2.650470 10.550963 0.243475
Head 5.553413 -15.355414 6.812802
LeftShoulder -9.748350 26.093945 12.089607
LeftArm 30.666554 26.255602 -64.174192
LeftForeArm 3.422714 -0.000000 24.101384
LeftHand -26.009268 0.000000 3.708220
LeftHandThumb1 -26.253704 0.000000 33.147579
RightShoulder -15.508280 10.828841 -23.984934
RightArm -5.538420 -34.369879 91.259377
RightForeArm -23.305361 -0.000000 28.480333
RightHand -4.394801 -0.000000 1.211543
RightHandThumb1 -24.326973 -0.000000 -32.862282
LeftUpLeg -17.139066 -6.014943 2.458679
LeftLeg 20.740585 -0.000000 -0.000000
LeftFoot -26.439579 18.064382 -21.503628
LeftToeBase 4.471979 -0.000000 -0.000000
RightUpLeg -29.665133 -0.777598 -1.475110
RightLeg 56.036098 -0.000000 -0.000000
RightFoot -12.808015 -15.796315 2.290720
RightToeBase -4.447421 -0.000000 0.000000
172
root 16.269167 32.608730 3.334860 142.511855 -83.964652 -128.133286
Spine -2.804456 10.702185 0.238019
Head 5.522222 -15.239227 6.767988
LeftShoulder -9.722414 26.107410 12.067515
LeftArm 30.464230 26.804863 -64.203997
LeftForeArm 2.931405 -0.000000 23.803145
LeftHand -26.021874 -0.000000 3.917406
LeftHandThumb1 -26.253704 0.000000 33.147579
RightShoulder -15.478631 10.876224 -24.031098
RightArm -5.419518 -34.441645 91.229236
RightForeArm -23.411706 0.000000 28.562678
RightHand -4.489165 -0.000000 1.287977
RightHandThumb1 -24.326973 -0.000000 -32.862282
LeftUpLeg -17.403897 -5.802858 2.474634
LeftLeg 20.521055 -0.000000 -0.000000
LeftFoot -26.158985 18.166999 -21.397377
LeftToeBase 4.690789 -0.000000 -0.000000
RightUpLeg -28.611503 -1.186061 -1.354949
RightLeg 55.463255 -0.000000 -0.000000
RightFoot -12.997506 -15.414404 2.273552
RightToeBase -4.683457 -0.000000 0.000000
173
root 16.401829 32.628911 3.311375 143.931346 -83.779670 -129.408903
Spine -2.963672 10.827299 0.297378
Head 5.512766 -15.088492 6.778769
LeftShoulder -9.758389 26.137957 12.031500
LeftArm 30.237290 27.207603 -64.334419
LeftForeArm 2.834714 -0.000000 23.573814
LeftHand -26.270673 0.000000 3.590318
LeftHandThumb1 -26.253704 0.000000 33.147579
RightShoulder -15.429317 10.969513 -24.080085
RightArm -5.351031 -34.649867 91.239388
RightForeArm -23.517498 -0.000000 28.581007
RightHand -4.462797 0.000000 0.923795
RightHandThumb1 -24.326973 -0.000000 -32.862282
LeftUpLeg -17.758909 -5.225152 2.523012
LeftLeg 20.501649 -0.000000 -0.000000
LeftFoot -25.802048 17.997958 -21.126695
LeftToeBase 4.639991 -0.000000 -0.000000
RightUpLeg -27.510786 -1.535900 -1.163355
RightLeg 54.619592 -0.000000 -0.000000
RightFoot -13.157447 -15.134816 2.326345
RightToeBase -4.811457 -0.000000 0.000000
174
root 16.538508 32.649380 3.286507 145.346624 -83.622640 -130.652136
Spine -3.129569 10.970089 0.310413
Head 5.459192 -15.013306 6.817041
LeftShoulder -9.786022 26.308143 11.988091
LeftArm 30.299545 27.722506 -64.228624
LeftForeArm 2.520688 -0.000000 23.260724
LeftHand -26.068749 -0.000000 3.614340
LeftHandThumb1 -26.253704 0.000000 33.147579
RightShoulder -15.394834 10.954396 -24.099745
RightArm -5.172967 -34.800328 91.192051
RightForeArm -23.517548 -0.000000 28.627903
RightHand -4.409655 -0.000000 1.108903
RightHandThumb1 -24.326973 -0.000000 -32.862282
LeftUpLeg -18.094522 -4.871314 2.580368
LeftLeg 20.367088 -0.000000 -0.000000
LeftFoot -25.507527 17.990071 -21.006654
LeftToeBase 4.619896 -0.000000 -0.000000
RightUpLeg -26.418173 -1.885302 -1.014952
RightLeg 53.524545 -0.000000 -0.000000
RightFoot -13.308255 -14.674679 2.411774
RightToeBase -5.133161 -0.000000 0.000000
175
root 16.675196 32.668853 3.260012 146.704763 -83.463472 -131.831959
Spine -3.303541 11.124419 0.327563
Head 5.407774 -14.932206 6.820545
LeftShoulder -9.710650 26.255290 12.041145
LeftArm 30.077864 28.197347 -64.353261
LeftForeArm 2.330240 0.000000 22.911211
LeftHand -25.972637 -0.000000 3.759119
LeftHandThumb1 -26.253704 0.000000 33.147579
RightShoulder -15.352654 11.002257 -24.130794
RightArm -5.103804 -34.907579 91.176769
RightForeArm -23.710424 0.000000 28.699532
RightHand -4.495726 -0.000000 0.942095
RightHandThumb1 -24.326973 -0.000000 -32.862282
LeftUpLeg -18.419010 -4.567105 2.654625
LeftLeg 20.205515 -0.000000 -0.000000
LeftFoot -25.206466 18.019091 -20.915652
LeftToeBase 4.232265 -0.000000 -0.000000
RightUpLeg -25.306451 -2.260319 -0.883165
RightLeg 52.168739 -0.000000 -0.000000
RightFoot -13.432401 -14.015885 2.597817
RightToeBase -5.488282 -0.000000 0.000000
176
root 16.806475 32.686477 3.230247 147.796452 -83.340463 -132.779255
Spine -3.423180 11.262442 0.336044
Head 5.328657 -14.835846 6.867899
LeftShoulder -9.633264 26.234932 12.084810
LeftArm 29.939838 28.656467 -64.435284
LeftForeArm 2.129415 0.000000 22.581116
LeftHand -26.003260 -0.000000 3.605287
LeftHandThumb1 -26.253704 0.000000 33.147579
RightShoulder -15.321913 11.070089 -24.168848
RightArm -5.087895 -35.044642 91.186555
RightForeArm -23.804729 -0.000000 28.775865
RightHand -4.273245 -0.000000 1.086896
RightHandThumb1 -24.326973 -0.000000 -32.862282
LeftUpLeg -18.740683 -4.208571 2.692320
LeftLeg 20.064859 -0.000000 -0.000000
LeftFoot -24.860258 17.947387 -20.685880
LeftToeBase 4.697557 -0.000000 -0.000000
RightUpLeg -24.127031 -2.511146 -0.767305
RightLeg 50.544309 -0.000000 -0.000000
RightFoot -13.434622 -13.445919 2.666185
RightToeBase -6.141137 -0.000000 0.000000
177
root 16.942696 32.704762 3.193548 148.736600 -83.164119 -133.532411
Spine -3.575660 11.370222 0.385898
Head 5.235075 -14.729778 6.890750
LeftShoulder -9.598527 26.268191 12.090633
LeftArm 29.755478 28.966850 -64.606056
LeftForeArm 2.023753 -0.000000 22.333065
LeftHand -26.111794 -0.000000 3.462826
LeftHandThumb1 -26.253704 0.000000 33.147579
RightShoulder -15.240358 11.099960 -24.166482
RightArm -4.969804 -35.167557 91.123845
RightForeArm -23.904368 -0.000000 28.864660
RightHand -4.310916 -0.000000 1.259958
RightHandThumb1 -24.326973 -0.000000 -32.862282
LeftUpLeg -19.106020 -3.974391 2.830401
LeftLeg 19.969107 -0.000000 -0.000000
LeftFoot -24.623466 17.961142 -20.679044
LeftToeBase 4.727665 -0.000000 -0.000000
RightUpLeg -22.925172 -2.887492 -0.581390
RightLeg 48.567643 -0.000000 -0.000000
RightFoot -13.416071 -12.797509 2.631069
RightToeBase -6.308705 -0.000000 0.000000
